<svg version="1.1" id="Layer_1" xmlns="http://www.w3.org/2000/svg" xmlns:xlink="http://www.w3.org/1999/xlink" x="0px" y="0px"
	 width="100%" viewBox="0 0 500 500" enable-background="new 0 0 500 500" xml:space="preserve">
<path fill="#000000" opacity="1.000000" stroke="none" 
	d="
M275.000000,501.000000 
	C183.333359,501.000000 92.166710,501.000000 1.000049,501.000000 
	C1.000033,334.333405 1.000033,167.666794 1.000016,1.000138 
	C167.666565,1.000092 334.333130,1.000092 500.999756,1.000046 
	C500.999847,167.666519 500.999847,334.333038 500.999939,500.999786 
	C425.833344,501.000000 350.666656,501.000000 275.000000,501.000000 
M363.001587,152.730652 
	C369.972229,163.413147 369.000061,176.109024 372.243408,188.049942 
	C376.498901,182.241821 376.381012,175.337387 377.329834,168.519958 
	C380.472931,167.100403 384.485870,166.321823 384.960571,161.346008 
	C382.557648,161.088882 380.356934,160.853409 378.424500,160.646622 
	C377.325348,157.072769 378.187347,155.106522 381.417114,153.620529 
	C383.114685,152.839493 384.047241,150.395721 385.875946,147.973312 
	C382.807983,147.297775 380.991638,146.897827 378.954041,146.449158 
	C378.954041,144.738968 379.118042,143.224335 378.832428,141.799850 
	C378.765594,141.466476 377.175690,141.438461 375.995178,140.366577 
	C376.796204,139.343231 377.507507,138.231750 378.412384,137.310410 
	C385.715668,129.874466 393.148254,122.561615 400.287567,114.972443 
	C401.405304,113.784279 402.145111,110.781830 401.428040,109.714767 
	C400.624939,108.519707 397.880737,107.946907 396.128387,108.185356 
	C386.509491,109.494308 378.280121,114.034531 371.761475,120.988922 
	C367.922791,125.084167 364.693085,125.709450 360.698242,122.643501 
	C361.225952,120.209442 361.723999,117.912193 362.222076,115.614952 
	C361.838287,115.174034 361.454498,114.733124 361.070740,114.292206 
	C357.768646,115.573456 354.466553,116.854706 350.646088,118.337097 
	C349.323425,117.643806 347.313110,116.590073 345.975494,115.888954 
	C346.831543,113.295113 347.589203,110.999359 348.346863,108.703613 
	C347.876831,108.223526 347.406799,107.743439 346.936798,107.263351 
	C343.742798,108.813278 340.548828,110.363205 336.653961,112.253242 
	C332.593842,110.746902 327.595062,108.754585 322.489380,107.090347 
	C321.133728,106.648483 319.449585,107.214455 317.916260,107.317673 
	C318.757965,108.586395 319.326996,110.236580 320.484222,111.063843 
	C330.245850,118.041946 340.648224,124.230675 347.809784,134.279617 
	C349.186554,136.211472 350.792999,137.979660 352.527740,140.111237 
	C350.226593,142.227615 347.676331,144.573090 344.819122,146.293686 
	C342.054871,142.869614 339.220154,139.499710 336.538422,136.012192 
	C324.006012,119.714157 307.276337,109.181091 288.397003,102.122971 
	C271.916412,95.961655 254.747131,94.590118 237.178329,96.889343 
	C223.504349,98.678856 210.637665,102.684723 198.499054,108.984497 
	C184.902908,116.040703 173.099548,125.501442 163.295425,137.302063 
	C160.853806,140.240891 159.069565,143.725891 156.051086,146.994232 
	C143.868271,146.954315 131.847290,147.234024 120.540970,153.048004 
	C110.513130,158.204544 108.985847,167.314590 114.753410,176.801773 
	C113.502220,185.293533 111.460594,193.762283 111.212769,202.283234 
	C110.942055,211.591125 112.005135,220.984772 113.072380,230.273788 
	C114.749916,244.874557 119.553528,258.704132 126.398529,271.544952 
	C135.909348,289.386749 148.209351,305.077484 164.688873,317.378754 
	C176.490082,326.187897 188.980942,333.426331 202.836517,338.299377 
	C204.065506,338.731628 205.657257,338.132416 207.080505,338.012268 
	C206.600861,336.458801 206.243454,336.172943 205.836304,336.042999 
	C189.392578,330.795837 174.616882,322.396881 161.740204,311.066376 
	C146.127151,297.328156 133.698563,281.059174 125.309921,261.815247 
	C118.545395,246.297104 114.612335,230.051132 114.246132,213.284576 
	C113.997719,201.911133 116.079811,190.486801 117.738716,179.289276 
	C122.098083,183.246155 126.457443,187.203018 130.823730,191.166168 
	C125.210892,202.577042 121.317993,214.221573 122.873718,227.414658 
	C124.859436,244.254166 134.109848,255.896271 151.165573,261.684082 
	C152.122925,263.439209 153.080292,265.194305 153.346603,267.331116 
	C150.785110,275.839569 151.641846,280.725220 157.902618,284.038635 
	C161.722351,286.060181 166.587708,286.106018 171.167664,287.674988 
	C173.160370,289.760895 175.153061,291.846771 177.037018,294.793335 
	C175.976913,303.006531 180.041275,305.775665 186.134293,306.854523 
	C189.982727,307.535980 194.060471,306.922455 198.717133,307.191254 
	C204.220047,309.452454 209.572998,312.230896 215.253998,313.877838 
	C232.251678,318.805481 249.522614,320.226105 267.243530,318.170990 
	C279.196838,316.784790 290.334839,313.360748 301.098572,308.391846 
	C317.912506,300.630066 331.907013,289.236450 342.353699,273.966644 
	C348.820892,264.513611 354.540161,254.489288 357.927032,243.004990 
	C366.277313,241.683914 374.627625,240.362823 382.980743,239.828079 
	C381.978577,243.197952 380.902222,246.548721 380.026733,249.951187 
	C379.809601,250.795120 380.243256,251.806488 380.377747,252.740875 
	C381.232391,252.216568 382.651062,251.850250 382.849396,251.142120 
	C384.060791,246.817352 384.995178,242.415009 386.675873,237.781540 
	C388.255585,236.926178 389.913422,236.188049 391.401978,235.195938 
	C399.356628,229.894150 402.613220,224.015030 397.636597,215.454056 
	C395.608826,211.965805 392.495026,209.108902 389.986664,205.079422 
	C389.649567,200.181992 389.462708,195.268158 388.929596,190.392151 
	C388.473297,186.219025 387.769989,182.054901 386.831757,177.965775 
	C386.611053,177.003647 385.005463,176.359268 383.575439,175.191986 
	C384.784515,185.678848 385.836121,194.799866 386.255676,203.705139 
	C378.183044,199.125061 370.110382,194.544968 361.750061,189.227646 
	C358.818909,180.087433 355.887787,170.947220 353.220734,161.215546 
	C355.883118,158.199219 358.545502,155.182877 361.114288,152.119507 
	C361.114288,152.119507 361.114471,152.224258 361.682556,152.622604 
	C362.082611,152.414261 362.482666,152.205917 363.001587,152.730652 
M306.721954,354.000000 
	C304.238831,353.869354 301.995605,353.646118 300.980927,356.961334 
	C296.833405,370.512482 292.457581,383.993744 288.082794,397.762146 
	C292.656952,397.762146 297.076538,397.762146 301.493256,397.762146 
	C304.253296,389.416809 304.253296,389.416809 316.438232,390.238739 
	C319.461273,399.039093 319.632538,399.117706 332.667145,397.588684 
	C328.940399,386.375214 325.263031,375.181000 321.496887,364.016693 
	C318.112946,353.985474 318.069916,354.000000 306.721954,354.000000 
M284.000000,370.503418 
	C284.000000,365.412903 284.000000,360.322388 284.000000,355.324707 
	C279.657379,355.324707 275.929596,355.324707 271.766479,355.324707 
	C271.766479,360.711884 271.766479,365.777191 271.766479,370.639801 
	C267.252563,370.639801 263.191406,370.639801 258.697449,370.639801 
	C258.697449,365.212463 258.697449,360.145233 258.697449,355.217834 
	C254.637177,355.217834 251.023865,355.217834 247.000000,355.217834 
	C247.000000,367.864227 247.000000,380.296600 247.000000,392.729004 
	C247.000000,394.347748 247.000000,395.966522 247.000000,397.764008 
	C251.163116,397.764008 254.889023,397.764008 259.059387,397.764008 
	C259.059387,392.140106 259.059387,386.734802 259.059387,381.271362 
	C263.569641,381.271362 267.628998,381.271362 272.126892,381.271362 
	C272.126892,386.933197 272.126892,392.335785 272.126892,397.693237 
	C276.306915,397.693237 280.034424,397.693237 284.000000,397.693237 
	C284.000000,388.759705 284.000000,380.130798 284.000000,370.503418 
M355.886871,354.382629 
	C353.248718,354.256195 350.584534,353.831940 347.977356,354.059845 
	C340.502472,354.713287 336.062866,358.503754 334.973694,364.775208 
	C333.707825,372.063934 335.662872,375.853912 342.907623,379.972382 
	C344.735321,381.011414 346.613922,381.982605 348.541229,382.818787 
	C350.503723,383.670288 353.183533,384.456970 351.722168,387.022522 
	C351.041656,388.217285 348.029144,388.816132 346.271973,388.517670 
	C342.210541,387.827881 338.270142,386.425751 334.000000,385.234253 
	C334.000000,387.120972 334.190125,388.962097 333.962189,390.749908 
	C333.411346,395.070923 334.756195,397.803497 339.474213,398.106659 
	C343.874756,398.389343 348.319824,399.221680 352.663239,398.850891 
	C358.713104,398.334412 364.250977,392.694366 364.988861,387.358459 
	C365.972961,380.242035 363.842377,376.533295 356.729523,372.961517 
	C354.558441,371.871307 352.265625,370.955078 350.275604,369.597137 
	C348.973755,368.708771 348.116180,367.169342 347.059631,365.921539 
	C348.933624,365.380737 350.896729,364.198212 352.661499,364.443390 
	C355.611786,364.853180 358.435394,366.174896 361.548157,367.189667 
	C362.842651,363.860046 364.041901,360.775391 365.523102,356.965485 
	C362.160889,356.195496 359.374817,355.557495 355.886871,354.382629 
M223.447754,398.000000 
	C225.201401,398.000000 226.955048,398.000000 229.000000,398.000000 
	C229.000000,394.616882 229.116928,391.965759 228.975220,389.328552 
	C228.695633,384.126099 229.390533,379.445557 232.426559,374.791962 
	C236.402374,368.697906 239.336349,361.924133 242.846802,355.196808 
	C229.810471,354.554382 229.814194,354.556274 224.379715,365.166992 
	C223.777069,366.343658 223.102463,367.483459 222.314438,368.905212 
	C215.090103,353.900085 215.090103,353.900085 202.422073,355.438049 
	C207.689316,369.349182 220.203323,380.810944 215.373474,398.000000 
	C218.567520,398.000000 220.533768,398.000000 223.447754,398.000000 
M139.000000,392.373993 
	C139.000000,394.134644 139.000000,395.895325 139.000000,397.582001 
	C143.732544,397.582001 147.768967,397.582001 152.210938,397.582001 
	C152.210938,392.241150 152.210938,387.315948 152.210938,381.819031 
	C156.668167,381.819031 160.720337,381.819031 164.712418,381.819031 
	C164.712418,378.298950 164.712418,375.371979 164.712418,371.877686 
	C160.381729,371.877686 156.322296,371.877686 152.253967,371.877686 
	C152.253967,369.365570 152.253967,367.436096 152.253967,364.925293 
	C156.875916,364.925293 161.271072,364.925293 165.588242,364.925293 
	C165.588242,361.291138 165.588242,358.252472 165.588242,355.298889 
	C156.593903,355.298889 148.014160,355.298889 139.000000,355.298889 
	C139.000000,367.529785 139.000000,379.466980 139.000000,392.373993 
M172.000000,387.475067 
	C172.000000,390.890350 172.000000,394.305664 172.000000,397.575836 
	C182.103943,397.575836 191.460541,397.575836 200.679443,397.575836 
	C200.679443,394.225586 200.679443,391.303101 200.679443,387.810669 
	C194.995483,387.810669 189.617142,387.810669 183.871429,387.810669 
	C183.871429,376.653870 183.871429,366.079193 183.871429,355.333191 
	C179.772385,355.333191 176.071167,355.333191 172.000000,355.333191 
	C172.000000,365.934998 172.000000,376.207855 172.000000,387.475067 
M294.717590,78.944534 
	C311.302856,84.125191 326.000671,92.664146 339.815887,103.760796 
	C340.010010,102.162392 339.922546,100.362045 338.994995,99.638100 
	C323.842316,87.811676 307.206238,78.739853 288.686188,73.367477 
	C286.008057,72.590591 283.107666,72.579994 280.310120,72.214783 
	C280.218536,72.748184 280.126953,73.281593 280.035339,73.814995 
	C284.698975,75.387177 289.362610,76.959366 294.717590,78.944534 
z"/>
<path fill="#1E63AE" opacity="1.000000" stroke="none" 
	d="
M389.875305,205.964752 
	C392.495026,209.108902 395.608826,211.965805 397.636597,215.454056 
	C402.613220,224.015030 399.356628,229.894150 391.401978,235.195938 
	C389.913422,236.188049 388.255585,236.926178 386.025085,237.925995 
	C384.575470,238.394211 383.776703,238.717972 382.977905,239.041748 
	C374.627625,240.362823 366.277313,241.683914 357.003113,243.008987 
	C350.714203,243.022125 345.349243,243.031265 339.520691,243.021866 
	C331.306885,242.621552 323.538574,242.453049 315.811401,241.798935 
	C307.842865,241.124390 299.914368,239.977158 291.849426,238.713257 
	C290.834381,238.271027 289.938232,238.152283 288.663116,237.989716 
	C285.193329,236.579666 282.700470,237.632965 280.147919,239.550507 
	C276.055969,242.624466 271.825104,245.530289 267.519379,248.299469 
	C257.681091,254.626785 247.761963,260.828369 237.549927,267.193817 
	C228.459106,271.386658 219.956909,276.237854 210.858276,279.339478 
	C200.865005,282.746094 190.322403,284.541199 179.567444,287.024231 
	C176.404953,287.019745 173.694183,287.029480 170.983429,287.039246 
	C166.587708,286.106018 161.722351,286.060181 157.902618,284.038635 
	C151.641846,280.725220 150.785110,275.839569 154.014633,267.251099 
	C157.824936,271.198975 161.775757,273.757782 167.488205,273.979736 
	C177.891373,272.876984 188.099350,272.834869 197.711761,270.421082 
	C220.504929,264.697418 241.916290,255.090500 262.873291,244.547333 
	C267.595490,242.171677 272.113312,239.389801 277.741394,236.223160 
	C274.917572,236.053726 273.432037,235.964600 271.735718,235.581024 
	C267.446564,233.630554 264.155396,235.237793 260.409058,237.056320 
	C249.404419,242.398087 238.096970,247.116028 226.558273,252.199432 
	C221.999023,253.604324 217.619217,254.505676 213.629898,256.283356 
	C209.917953,257.937469 206.164108,258.565125 202.315521,259.476471 
	C188.289093,262.797882 174.223495,263.151794 159.669327,262.890930 
	C156.525330,262.172638 153.735184,261.601624 150.945023,261.030609 
	C134.109848,255.896271 124.859436,244.254166 122.873718,227.414658 
	C121.317993,214.221573 125.210892,202.577042 130.823730,191.166168 
	C126.457443,187.203018 122.098083,183.246155 117.363892,178.882553 
	C116.379448,177.687576 115.769814,176.899338 115.160179,176.111084 
	C108.985847,167.314590 110.513130,158.204544 120.540970,153.048004 
	C131.847290,147.234024 143.868271,146.954315 156.947418,146.990784 
	C159.849045,146.973190 161.854355,146.959061 163.872742,147.207916 
	C163.605728,147.658325 163.325607,147.845718 162.627838,148.016266 
	C159.800186,148.346420 157.390167,148.693420 154.565399,149.025970 
	C152.232727,149.341339 150.270432,149.511185 148.404587,150.028748 
	C140.438339,152.238617 132.297607,154.025803 124.616714,156.992798 
	C118.491356,159.358917 116.167931,165.399368 119.409821,170.425674 
	C123.258896,176.393341 128.996307,180.773727 135.186096,184.125870 
	C138.060471,181.429672 140.468262,179.171127 142.916077,177.319061 
	C142.183929,180.970291 141.411743,184.215057 140.502487,188.035873 
	C142.084335,188.621475 144.003677,189.332031 146.112823,190.336807 
	C152.845001,193.959198 159.387375,197.287384 165.684479,200.490799 
	C165.283005,203.161392 164.932343,205.494095 164.549789,208.038773 
	C157.661407,204.905609 151.158783,201.947906 144.316635,198.835770 
	C143.979980,203.179993 145.628952,206.408691 149.079620,207.355103 
	C157.289078,209.606705 165.694855,211.142502 174.021317,212.967484 
	C174.071976,212.541840 174.122650,212.116180 174.173309,211.690536 
	C172.256088,209.282135 170.338867,206.873734 168.421631,204.465332 
	C168.629440,203.947769 168.837234,203.430191 169.045029,202.912613 
	C172.024261,202.595520 175.003494,202.278412 178.395065,201.974365 
	C183.018295,203.248444 187.201920,204.615356 191.455429,205.710907 
	C192.870804,206.075439 194.877640,206.335175 195.901520,205.621094 
	C199.096634,203.392776 201.950974,200.675827 205.216888,197.970947 
	C205.046524,195.741608 204.470703,192.550934 207.426956,193.306137 
	C210.742218,194.153076 211.989944,192.178726 214.294067,190.865326 
	C216.515625,189.292374 213.517761,184.887390 218.373260,185.098831 
	C220.134979,184.639984 221.842239,184.365829 222.984787,183.413910 
	C228.125244,179.131104 229.954102,178.949646 235.099869,182.981735 
	C227.781128,191.728668 220.461288,200.476913 212.642563,209.821396 
	C216.539536,209.443954 219.217300,209.527451 221.709885,208.888489 
	C240.214188,204.144928 258.830170,199.748550 277.101440,194.219772 
	C287.015167,191.219894 296.322235,186.215225 306.286438,182.069504 
	C317.366241,178.397018 326.674286,172.321701 336.807953,165.902176 
	C330.186737,162.562363 324.626801,159.757874 319.008423,156.923904 
	C321.696686,150.764465 326.935608,152.626389 330.779388,153.520172 
	C337.723846,155.134995 341.894562,152.481583 345.126099,146.918564 
	C347.676331,144.573090 350.226593,142.227615 352.527740,140.111237 
	C350.792999,137.979660 349.186554,136.211472 347.809784,134.279617 
	C340.648224,124.230675 330.245850,118.041946 320.484222,111.063843 
	C319.326996,110.236580 318.757965,108.586395 317.916260,107.317673 
	C319.449585,107.214455 321.133728,106.648483 322.489380,107.090347 
	C327.595062,108.754585 332.593842,110.746902 336.653961,112.253242 
	C340.548828,110.363205 343.742798,108.813278 346.936798,107.263351 
	C347.406799,107.743439 347.876831,108.223526 348.346863,108.703613 
	C347.589203,110.999359 346.831543,113.295113 345.975494,115.888954 
	C347.313110,116.590073 349.323425,117.643806 350.646088,118.337097 
	C354.466553,116.854706 357.768646,115.573456 361.070740,114.292206 
	C361.454498,114.733124 361.838287,115.174034 362.222076,115.614952 
	C361.723999,117.912193 361.225952,120.209442 360.698242,122.643501 
	C364.693085,125.709450 367.922791,125.084167 371.761475,120.988922 
	C378.280121,114.034531 386.509491,109.494308 396.128387,108.185356 
	C397.880737,107.946907 400.624939,108.519707 401.428040,109.714767 
	C402.145111,110.781830 401.405304,113.784279 400.287567,114.972443 
	C393.148254,122.561615 385.715668,129.874466 378.412384,137.310410 
	C377.507507,138.231750 376.796204,139.343231 376.009338,140.921478 
	C375.201050,142.316040 374.378662,143.155716 373.170685,143.719543 
	C371.671204,143.963531 370.557281,144.483368 369.273865,145.185577 
	C368.405212,146.079041 367.705994,146.790115 366.836334,147.700409 
	C366.494385,147.933533 366.322876,147.967407 365.791138,147.980576 
	C365.293243,148.338394 365.155548,148.716919 365.016785,149.056320 
	C365.015686,149.017181 365.093872,149.022034 364.709381,148.913666 
	C364.205811,149.222321 364.086700,149.639343 363.984344,150.027695 
	C364.001068,149.999023 364.060486,149.969406 363.652100,149.831039 
	C363.153809,150.148285 363.063904,150.603912 362.986389,151.033493 
	C362.998779,151.007446 363.051910,150.985031 362.746857,150.680084 
	C361.999359,150.991531 361.556915,151.607895 361.114471,152.224258 
	C361.114471,152.224258 361.114288,152.119507 360.814087,152.006165 
	C359.683746,152.433044 358.806091,152.912796 358.030365,153.522263 
	C335.150116,171.498901 310.855865,187.347610 283.624176,197.720718 
	C263.552826,205.366287 242.709930,210.986374 222.802261,217.320786 
	C226.181641,218.583389 230.773438,219.983536 235.079498,221.995300 
	C239.507111,224.063828 242.997986,223.630325 246.626938,220.248917 
	C248.663757,218.351059 251.553558,217.368652 254.059052,215.973801 
	C254.427765,216.424667 254.796478,216.875534 255.165192,217.326416 
	C250.832809,223.880005 242.194717,228.850342 247.039352,239.084808 
	C250.599731,237.305954 254.234650,235.489853 258.667023,233.275330 
	C255.407089,232.492935 253.072006,231.932510 250.736923,231.372086 
	C250.701630,230.802551 250.666351,230.233002 250.631058,229.663467 
	C252.441177,229.501984 254.488297,228.714294 256.018158,229.293335 
	C261.154510,231.237305 265.446075,230.374435 269.916809,227.253632 
	C281.378113,219.253006 293.061462,211.570160 304.675812,203.789734 
	C305.722626,203.088486 306.912384,202.600601 308.191772,202.352478 
	C306.821320,204.146378 305.389893,205.719604 303.752197,207.036346 
	C295.894043,213.354507 287.980164,219.603363 279.725647,225.936218 
	C276.398529,227.738602 273.431793,229.481598 270.465027,231.224579 
	C270.590576,231.656158 270.716125,232.087753 270.841705,232.519333 
	C273.235199,232.667068 275.628693,232.814789 278.365601,233.104401 
	C280.350342,233.123322 282.303040,233.533478 283.580383,232.787415 
	C289.933319,229.076874 296.099457,225.047348 302.357941,221.173141 
	C303.123840,220.699051 304.049438,220.483017 304.901031,220.147400 
	C305.054596,220.445770 305.208130,220.744141 305.361694,221.042511 
	C299.688171,225.492584 294.014648,229.942673 288.341125,234.392746 
	C288.426147,234.915421 288.511139,235.438080 288.596161,235.960754 
	C305.723969,236.627243 322.851776,237.293747 340.437317,237.975433 
	C346.935547,237.646927 352.976013,237.303238 359.432739,236.953796 
	C368.232849,235.284729 376.616760,233.621414 385.309753,231.867798 
	C386.451355,231.152771 387.283875,230.528061 388.442719,229.798889 
	C395.366089,225.642670 395.711090,221.646942 390.000824,213.792496 
	C388.944916,212.344833 388.003815,211.203278 386.738983,209.947205 
	C383.934967,207.710052 381.635376,205.315399 378.936371,203.521759 
	C373.444519,199.872116 367.737122,196.546860 362.002106,192.801498 
	C361.936371,191.664993 361.987061,190.814941 362.037781,189.964874 
	C370.110382,194.544968 378.183044,199.125061 386.717407,204.098114 
	C388.077881,204.982330 388.976593,205.473541 389.875305,205.964752 
M197.970947,255.773422 
	C199.208328,255.372482 200.445694,254.971542 202.619553,254.267151 
	C200.495819,251.070358 198.628311,248.259247 196.431503,244.952454 
	C198.725281,241.799225 199.845078,238.082977 194.202942,235.528809 
	C193.606323,235.258743 192.968750,233.442413 193.244110,233.129120 
	C197.182404,228.648071 193.385101,224.938400 192.606781,221.097275 
	C189.374023,221.097275 186.553360,220.989014 183.743378,221.116455 
	C172.894531,221.608459 162.091293,221.409668 151.694458,217.866959 
	C141.560852,214.413925 134.425385,206.848480 137.685028,195.143494 
	C137.773544,194.825668 137.317276,194.356155 136.660980,193.061966 
	C135.484039,194.747757 134.513321,195.887421 133.817169,197.175507 
	C128.861694,206.344620 126.905930,216.089920 127.892334,226.513718 
	C129.438385,242.851624 138.627335,253.448349 154.620895,257.066589 
	C168.908600,260.298950 183.043655,258.472015 197.970947,255.773422 
M231.798187,245.269211 
	C233.661591,244.573120 235.624664,244.062256 237.360199,243.128494 
	C239.076416,242.205109 242.091049,240.333755 241.901062,239.776337 
	C240.701538,236.256973 239.544113,231.010284 236.939743,229.989258 
	C227.386581,226.244019 217.272095,223.930618 206.857834,220.931030 
	C207.697189,231.807007 208.485992,242.027740 209.329910,252.962662 
	C216.756042,250.455688 223.927643,248.034622 231.798187,245.269211 
z"/>
<path fill="#63CBF7" opacity="1.000000" stroke="none" 
	d="
M204.937439,198.148315 
	C201.950974,200.675827 199.096634,203.392776 195.901520,205.621094 
	C194.877640,206.335175 192.870804,206.075439 191.455429,205.710907 
	C187.201920,204.615356 183.018295,203.248444 178.288727,201.643433 
	C176.375488,200.512558 174.595856,200.039246 173.654343,198.883301 
	C169.972076,194.362427 164.921829,190.088257 163.439804,184.855759 
	C161.453278,177.841965 160.245331,170.152206 162.671616,162.509995 
	C164.531204,156.652710 165.471024,150.503403 167.062592,143.401001 
	C165.531891,145.094666 164.695770,146.019806 163.859650,146.944931 
	C161.854355,146.959061 159.849045,146.973190 157.413452,146.973587 
	C159.069565,143.725891 160.853806,140.240891 163.295425,137.302063 
	C173.099548,125.501442 184.902908,116.040703 198.499054,108.984497 
	C210.637665,102.684723 223.504349,98.678856 237.178329,96.889343 
	C254.747131,94.590118 271.916412,95.961655 288.397003,102.122971 
	C307.276337,109.181091 324.006012,119.714157 336.538422,136.012192 
	C339.220154,139.499710 342.054871,142.869614 344.972595,146.606125 
	C341.894562,152.481583 337.723846,155.134995 330.779388,153.520172 
	C326.935608,152.626389 321.696686,150.764465 319.008423,156.923904 
	C324.626801,159.757874 330.186737,162.562363 336.807953,165.902176 
	C326.674286,172.321701 317.366241,178.397018 305.960297,181.904022 
	C301.663818,180.337616 297.738190,179.270691 297.078522,174.340851 
	C301.329712,173.603928 304.011932,167.975128 309.105316,170.145325 
	C313.776672,172.135712 316.003906,169.066269 317.820496,166.151718 
	C320.036316,162.596680 318.493469,159.360596 315.344299,156.829224 
	C312.532745,154.569260 309.794373,152.218216 306.397034,149.384689 
	C308.607941,147.343613 310.303589,145.458298 312.305908,143.991638 
	C317.624023,140.096191 317.722504,133.676529 312.576416,129.840485 
	C309.416931,127.485306 306.330231,124.809303 309.661346,120.651962 
	C308.543610,119.753891 307.704010,118.985016 306.774231,118.347794 
	C301.464233,114.708786 295.766846,113.004341 289.372803,115.021835 
	C283.464783,116.885979 277.562683,121.093948 271.654083,115.027443 
	C266.361481,116.747086 264.364349,110.901291 260.066376,109.941864 
	C257.133240,109.287102 254.736053,106.250275 251.801483,105.577805 
	C248.596451,104.843361 245.048737,105.657722 241.649292,105.694496 
	C240.070786,105.711571 237.620865,106.071640 237.073868,105.259987 
	C235.480545,102.895813 233.423721,103.756828 231.772949,104.097954 
	C226.277542,105.233528 220.862991,106.760384 215.417450,108.137260 
	C218.873260,109.070732 222.548599,109.943581 225.564041,108.903419 
	C233.865875,106.039749 240.082733,107.714180 244.616745,115.162704 
	C245.224854,116.161682 245.367630,117.443909 245.725876,118.594986 
	C244.283783,118.687561 242.647247,119.265335 241.436707,118.780159 
	C238.040588,117.419029 234.772461,116.612129 231.321030,118.392761 
	C227.046097,120.598251 222.628235,122.575142 218.561707,125.114517 
	C216.692245,126.281921 214.717407,128.392151 214.313095,130.383942 
	C214.064270,131.609772 216.428116,133.855301 218.091461,134.862625 
	C220.453186,136.292877 223.249939,137.004807 226.768158,138.377762 
	C227.358917,136.456299 227.997787,133.713333 229.052353,131.140747 
	C230.050781,128.705093 230.928345,125.563126 232.871353,124.340439 
	C235.213806,122.866386 238.060165,124.168304 240.278015,126.563828 
	C241.526718,127.912544 243.829010,128.667343 245.760788,128.933304 
	C252.611679,129.876511 256.700714,133.744766 254.770523,138.847672 
	C253.816208,141.370621 250.712509,143.511063 248.085083,144.852951 
	C245.300919,146.274902 241.927872,146.543900 238.812027,147.316437 
	C238.862213,148.094925 238.912399,148.873413 238.962585,149.651901 
	C241.569366,149.799393 244.199783,149.779480 246.776077,150.143021 
	C249.192825,150.484055 252.568100,150.466766 253.702484,151.975174 
	C255.469269,154.324524 249.731140,160.350525 246.559769,159.902603 
	C243.200256,159.428085 239.825150,159.063980 236.456863,158.651657 
	C236.605591,159.169861 236.754333,159.688065 236.903076,160.206268 
	C235.365082,161.137863 233.859787,162.131119 232.273819,162.972260 
	C231.590866,163.334457 230.555252,163.152725 229.995117,163.606903 
	C224.139465,168.354950 219.376694,173.950516 217.297958,181.366348 
	C217.004105,182.414597 217.778717,183.762329 218.058777,184.971451 
	C213.517761,184.887390 216.515625,189.292374 214.296936,190.508606 
	C212.204514,187.233414 210.471619,184.189713 208.587616,181.242630 
	C208.221481,180.669891 207.190292,180.059540 206.595825,180.169464 
	C202.198074,180.982559 197.870850,182.396790 193.447479,182.790054 
	C188.998856,183.185562 186.367477,185.871094 186.300171,189.410522 
	C186.239944,192.576172 187.787476,196.658539 190.073853,198.762924 
	C193.067627,201.518295 197.235626,200.502304 200.111465,197.327026 
	C202.377914,194.824585 203.597153,196.329880 204.937439,198.148315 
z"/>
<path fill="#63CBF7" opacity="1.000000" stroke="none" 
	d="
M339.984253,243.040405 
	C345.349243,243.031265 350.714203,243.022125 356.547424,243.026703 
	C354.540161,254.489288 348.820892,264.513611 342.353699,273.966644 
	C331.907013,289.236450 317.912506,300.630066 301.098572,308.391846 
	C290.334839,313.360748 279.196838,316.784790 267.243530,318.170990 
	C249.522614,320.226105 232.251678,318.805481 215.253998,313.877838 
	C209.572998,312.230896 204.220047,309.452454 198.583633,306.742157 
	C201.639160,305.541626 204.828186,304.790222 208.149384,304.389435 
	C216.963165,307.374664 225.644745,310.009277 233.658005,312.441101 
	C234.554138,306.624146 235.224106,301.813293 236.059891,297.031464 
	C236.526428,294.362152 237.268478,291.740997 238.026016,288.780151 
	C249.121292,279.280090 260.270508,270.315979 270.955017,260.828583 
	C276.734009,255.697052 281.719696,249.672150 287.047913,244.040375 
	C287.032562,244.030487 287.049438,244.053558 287.314453,244.006683 
	C287.737640,243.656204 287.895782,243.352615 288.026978,243.024506 
	C288.000000,243.000000 288.049500,243.053574 288.314514,243.006683 
	C288.737671,242.656204 288.895844,242.352615 289.024658,242.028320 
	C288.995300,242.007584 289.040558,242.064133 289.388611,242.071091 
	C290.193115,242.000717 290.649536,241.923370 291.486481,241.914764 
	C295.958313,244.611298 300.425995,245.134460 305.230530,245.293365 
	C306.872772,245.347687 309.250183,248.485199 309.807983,250.604507 
	C310.880005,254.677551 308.238464,257.692139 305.047424,259.962799 
	C302.948242,261.456482 299.014984,262.449738 298.773560,264.089661 
	C298.033752,269.115356 293.960510,271.039825 291.565735,274.445129 
	C287.709106,279.929169 282.623566,281.033966 276.875580,282.167633 
	C275.050079,282.527649 272.655548,284.593109 272.178619,286.332550 
	C270.795746,291.376373 268.368164,295.109802 263.454895,297.194427 
	C260.923401,298.268433 258.617920,299.874542 256.087769,300.952454 
	C250.718094,303.239960 248.098251,307.547394 246.284653,313.487061 
	C252.729065,312.962341 258.631226,312.440857 264.539948,312.009003 
	C277.722534,311.045563 289.739746,306.201630 301.173431,300.142426 
	C313.235901,293.750000 323.412231,284.731873 332.155975,274.253387 
	C336.833679,268.647675 341.600830,262.884064 340.986359,254.799652 
	C340.688232,250.877182 340.320496,246.959991 339.984253,243.040405 
z"/>
<path fill="#63CBF7" opacity="1.000000" stroke="none" 
	d="
M359.016510,236.959534 
	C352.976013,237.303238 346.935547,237.646927 340.446106,237.552338 
	C339.201935,231.446716 338.406708,225.779388 337.499817,219.316132 
	C337.355743,219.239929 336.282318,218.329346 335.075104,218.088165 
	C325.817047,216.238541 321.280945,209.956924 318.974091,201.411774 
	C318.480682,199.584061 317.590973,197.863312 316.930786,195.821198 
	C316.971893,195.365128 316.966156,195.181137 317.092529,194.684296 
	C329.135345,183.516617 341.045990,172.661804 352.956665,161.807007 
	C355.887787,170.947220 358.818909,180.087433 361.893921,189.596252 
	C361.987061,190.814941 361.936371,191.664993 361.950439,193.225555 
	C362.343323,195.503830 362.898682,197.062241 362.963776,198.640854 
	C363.498016,211.598557 362.829681,224.444504 359.016510,236.959534 
z"/>
<path fill="#FBFCFE" opacity="1.000000" stroke="none" 
	d="
M353.088684,161.511261 
	C341.045990,172.661804 329.135345,183.516617 316.833130,194.705566 
	C316.236603,195.262909 316.031616,195.486115 315.867950,195.783432 
	C315.909271,195.857544 315.781708,195.745621 315.487000,195.696503 
	C315.035553,195.976456 314.878815,196.305527 314.766846,196.743561 
	C314.811554,196.852493 314.671631,196.663025 314.346191,196.620117 
	C313.687500,197.065002 313.354218,197.552811 313.013519,198.023743 
	C313.006104,198.006851 313.038910,198.023712 312.695099,197.979736 
	C310.904388,199.300446 309.457489,200.665115 308.010010,202.017548 
	C308.009430,202.005325 308.035767,202.013626 308.035767,202.013641 
	C306.912384,202.600601 305.722626,203.088486 304.675812,203.789734 
	C293.061462,211.570160 281.378113,219.253006 269.916809,227.253632 
	C265.446075,230.374435 261.154510,231.237305 256.018158,229.293335 
	C254.488297,228.714294 252.441177,229.501984 250.631058,229.663467 
	C250.666351,230.233002 250.701630,230.802551 250.736923,231.372086 
	C253.072006,231.932510 255.407089,232.492935 258.667023,233.275330 
	C254.234650,235.489853 250.599731,237.305954 247.039352,239.084808 
	C242.194717,228.850342 250.832809,223.880005 255.165192,217.326416 
	C254.796478,216.875534 254.427765,216.424667 254.059052,215.973801 
	C251.553558,217.368652 248.663757,218.351059 246.626938,220.248917 
	C242.997986,223.630325 239.507111,224.063828 235.079498,221.995300 
	C230.773438,219.983536 226.181641,218.583389 222.802261,217.320786 
	C242.709930,210.986374 263.552826,205.366287 283.624176,197.720718 
	C310.855865,187.347610 335.150116,171.498901 358.030365,153.522263 
	C358.806091,152.912796 359.683746,152.433044 360.860901,152.029694 
	C358.545502,155.182877 355.883118,158.199219 353.088684,161.511261 
z"/>
<path fill="#63CBF7" opacity="1.000000" stroke="none" 
	d="
M307.190308,354.000000 
	C318.069916,354.000000 318.112946,353.985474 321.496887,364.016693 
	C325.263031,375.181000 328.940399,386.375214 332.667145,397.588684 
	C319.632538,399.117706 319.461273,399.039093 316.438232,390.238739 
	C304.253296,389.416809 304.253296,389.416809 301.493256,397.762146 
	C297.076538,397.762146 292.656952,397.762146 288.082794,397.762146 
	C292.457581,383.993744 296.833405,370.512482 300.980927,356.961334 
	C301.995605,353.646118 304.238831,353.869354 307.190308,354.000000 
M310.660278,366.403564 
	C309.248474,370.715454 307.836700,375.027344 306.328064,379.634949 
	C309.554962,379.634949 311.732513,379.634949 313.991913,379.634949 
	C312.924774,375.215820 311.946167,371.163452 310.660278,366.403564 
z"/>
<path fill="#63CBF7" opacity="1.000000" stroke="none" 
	d="
M284.000000,371.002625 
	C284.000000,380.130798 284.000000,388.759705 284.000000,397.693237 
	C280.034424,397.693237 276.306915,397.693237 272.126892,397.693237 
	C272.126892,392.335785 272.126892,386.933197 272.126892,381.271362 
	C267.628998,381.271362 263.569641,381.271362 259.059387,381.271362 
	C259.059387,386.734802 259.059387,392.140106 259.059387,397.764008 
	C254.889023,397.764008 251.163116,397.764008 247.000000,397.764008 
	C247.000000,395.966522 247.000000,394.347748 247.000000,392.729004 
	C247.000000,380.296600 247.000000,367.864227 247.000000,355.217834 
	C251.023865,355.217834 254.637177,355.217834 258.697449,355.217834 
	C258.697449,360.145233 258.697449,365.212463 258.697449,370.639801 
	C263.191406,370.639801 267.252563,370.639801 271.766479,370.639801 
	C271.766479,365.777191 271.766479,360.711884 271.766479,355.324707 
	C275.929596,355.324707 279.657379,355.324707 284.000000,355.324707 
	C284.000000,360.322388 284.000000,365.412903 284.000000,371.002625 
z"/>
<path fill="#1E63AE" opacity="1.000000" stroke="none" 
	d="
M287.063293,244.050293 
	C281.719696,249.672150 276.734009,255.697052 270.955017,260.828583 
	C260.270508,270.315979 249.121292,279.280090 237.702179,288.881104 
	C227.498215,294.212982 217.757706,299.125885 208.017197,304.038818 
	C204.828186,304.790222 201.639160,305.541626 198.242737,306.591431 
	C194.060471,306.922455 189.982727,307.535980 186.134293,306.854523 
	C180.041275,305.775665 175.976913,303.006531 177.466339,294.366699 
	C182.242462,296.728210 186.902664,298.050415 192.433777,296.828796 
	C195.309937,296.076721 197.980530,295.817688 200.321564,294.800293 
	C212.612473,289.458923 224.833221,283.954651 237.028580,278.397736 
	C237.893097,278.003815 238.357834,276.732513 239.011841,275.909241 
	C239.015213,275.949310 238.934799,275.950378 239.274414,276.173035 
	C242.726059,274.241791 245.838074,272.087860 248.974716,269.964966 
	C248.999329,269.995972 248.933060,269.952759 249.292847,270.166351 
	C250.420944,269.562988 251.189270,268.746063 251.977875,267.962280 
	C251.998184,267.995453 251.935211,267.949799 252.271790,268.174927 
	C255.388382,266.245148 258.168396,264.090179 260.974091,261.965637 
	C260.999786,261.996063 260.933044,261.952789 261.292847,262.166382 
	C262.420959,261.563019 263.189270,260.746063 263.977783,259.962250 
	C263.997986,259.995392 263.934723,259.950378 264.279175,260.174225 
	C265.733337,259.242798 266.842987,258.087494 267.975281,256.963531 
	C267.997925,256.994873 267.931366,256.955536 268.312866,257.158173 
	C269.798584,256.059875 270.902832,254.758957 271.998322,253.321259 
	C271.989563,253.184479 272.183319,252.990356 272.183319,252.990356 
	C272.183319,252.990356 272.457031,253.006973 272.888184,253.272476 
	C274.215729,252.510895 275.112152,251.483810 275.999603,250.320068 
	C275.990631,250.183426 276.184357,249.989532 276.184357,249.989532 
	C276.184357,249.989532 276.457855,250.006256 276.829834,250.276123 
	C278.803619,248.850067 280.405426,247.154144 282.065674,245.249680 
	C282.568604,244.696243 283.013123,244.351334 283.858978,244.276489 
	C285.194641,244.381134 286.128967,244.215714 287.063293,244.050293 
z"/>
<path fill="#63CBF7" opacity="1.000000" stroke="none" 
	d="
M356.237793,354.651062 
	C359.374817,355.557495 362.160889,356.195496 365.523102,356.965485 
	C364.041901,360.775391 362.842651,363.860046 361.548157,367.189667 
	C358.435394,366.174896 355.611786,364.853180 352.661499,364.443390 
	C350.896729,364.198212 348.933624,365.380737 347.059631,365.921509 
	C348.116180,367.169342 348.973755,368.708771 350.275604,369.597137 
	C352.265625,370.955078 354.558441,371.871307 356.729523,372.961517 
	C363.842377,376.533295 365.972961,380.242035 364.988861,387.358459 
	C364.250977,392.694366 358.713104,398.334412 352.663239,398.850891 
	C348.319824,399.221680 343.874756,398.389343 339.474213,398.106659 
	C334.756195,397.803497 333.411346,395.070923 333.962189,390.749908 
	C334.190125,388.962097 334.000000,387.120972 334.000000,385.234253 
	C338.270142,386.425751 342.210541,387.827881 346.271973,388.517670 
	C348.029144,388.816132 351.041656,388.217285 351.722168,387.022522 
	C353.183533,384.456970 350.503723,383.670288 348.541229,382.818787 
	C346.613922,381.982605 344.735321,381.011414 342.907623,379.972382 
	C335.662872,375.853912 333.707825,372.063934 334.973694,364.775208 
	C336.062866,358.503754 340.502472,354.713287 347.977356,354.059845 
	C350.584534,353.831940 353.248718,354.256195 356.237793,354.651062 
z"/>
<path fill="#1C61AD" opacity="1.000000" stroke="none" 
	d="
M222.973877,398.000000 
	C220.533768,398.000000 218.567520,398.000000 215.373474,398.000000 
	C220.203323,380.810944 207.689316,369.349182 202.422073,355.438049 
	C215.090103,353.900085 215.090103,353.900085 222.314438,368.905212 
	C223.102463,367.483459 223.777069,366.343658 224.379715,365.166992 
	C229.814194,354.556274 229.810471,354.554382 242.846802,355.196808 
	C239.336349,361.924133 236.402374,368.697906 232.426559,374.791962 
	C229.390533,379.445557 228.695633,384.126099 228.975220,389.328552 
	C229.116928,391.965759 229.000000,394.616882 229.000000,398.000000 
	C226.955048,398.000000 225.201401,398.000000 222.973877,398.000000 
z"/>
<path fill="#1C61AD" opacity="1.000000" stroke="none" 
	d="
M139.000000,391.889099 
	C139.000000,379.466980 139.000000,367.529785 139.000000,355.298889 
	C148.014160,355.298889 156.593903,355.298889 165.588242,355.298889 
	C165.588242,358.252472 165.588242,361.291138 165.588242,364.925293 
	C161.271072,364.925293 156.875916,364.925293 152.253967,364.925293 
	C152.253967,367.436096 152.253967,369.365570 152.253967,371.877686 
	C156.322296,371.877686 160.381729,371.877686 164.712418,371.877686 
	C164.712418,375.371979 164.712418,378.298950 164.712418,381.819031 
	C160.720337,381.819031 156.668167,381.819031 152.210938,381.819031 
	C152.210938,387.315948 152.210938,392.241150 152.210938,397.582001 
	C147.768967,397.582001 143.732544,397.582001 139.000000,397.582001 
	C139.000000,395.895325 139.000000,394.134644 139.000000,391.889099 
z"/>
<path fill="#1C61AD" opacity="1.000000" stroke="none" 
	d="
M172.000000,386.977905 
	C172.000000,376.207855 172.000000,365.934998 172.000000,355.333191 
	C176.071167,355.333191 179.772385,355.333191 183.871429,355.333191 
	C183.871429,366.079193 183.871429,376.653870 183.871429,387.810669 
	C189.617142,387.810669 194.995483,387.810669 200.679443,387.810669 
	C200.679443,391.303101 200.679443,394.225586 200.679443,397.575836 
	C191.460541,397.575836 182.103943,397.575836 172.000000,397.575836 
	C172.000000,394.305664 172.000000,390.890350 172.000000,386.977905 
z"/>
<path fill="#63CBF7" opacity="1.000000" stroke="none" 
	d="
M114.956795,176.456421 
	C115.769814,176.899338 116.379448,177.687576 117.054359,178.780518 
	C116.079811,190.486801 113.997719,201.911133 114.246132,213.284576 
	C114.612335,230.051132 118.545395,246.297104 125.309921,261.815247 
	C133.698563,281.059174 146.127151,297.328156 161.740204,311.066376 
	C174.616882,322.396881 189.392578,330.795837 205.836304,336.042999 
	C206.243454,336.172943 206.600861,336.458801 207.080505,338.012268 
	C205.657257,338.132416 204.065506,338.731628 202.836517,338.299377 
	C188.980942,333.426331 176.490082,326.187897 164.688873,317.378754 
	C148.209351,305.077484 135.909348,289.386749 126.398529,271.544952 
	C119.553528,258.704132 114.749916,244.874557 113.072380,230.273788 
	C112.005135,220.984772 110.942055,211.591125 111.212769,202.283234 
	C111.460594,193.762283 113.502220,185.293533 114.956795,176.456421 
z"/>
<path fill="#1C61AD" opacity="1.000000" stroke="none" 
	d="
M373.556244,143.995377 
	C374.378662,143.155716 375.201050,142.316040 376.154968,141.373169 
	C377.175690,141.438461 378.765594,141.466476 378.832428,141.799850 
	C379.118042,143.224335 378.954041,144.738968 378.954041,146.449158 
	C380.991638,146.897827 382.807983,147.297775 385.875946,147.973312 
	C384.047241,150.395721 383.114685,152.839493 381.417114,153.620529 
	C378.187347,155.106522 377.325348,157.072769 378.424500,160.646622 
	C380.356934,160.853409 382.557648,161.088882 384.960571,161.346008 
	C384.485870,166.321823 380.472931,167.100403 377.329834,168.519958 
	C376.381012,175.337387 376.498901,182.241821 372.243408,188.049942 
	C369.000061,176.109024 369.972229,163.413147 363.001160,152.113617 
	C363.017822,151.326050 363.034882,151.155533 363.051910,150.985031 
	C363.051910,150.985031 362.998779,151.007446 363.264099,150.968658 
	C363.706421,150.609726 363.883453,150.289566 364.060486,149.969406 
	C364.060486,149.969406 364.001068,149.999023 364.244507,150.001038 
	C364.657654,149.962723 364.827332,149.922409 365.419678,149.895721 
	C366.230499,149.106644 366.618652,148.303909 367.006805,147.501175 
	C367.705994,146.790115 368.405212,146.079041 369.662292,145.455383 
	C371.332214,145.026993 372.444244,144.511185 373.556244,143.995377 
z"/>
<path fill="#63CBF7" opacity="1.000000" stroke="none" 
	d="
M294.371887,78.738037 
	C289.362610,76.959366 284.698975,75.387177 280.035339,73.814995 
	C280.126953,73.281593 280.218536,72.748184 280.310120,72.214783 
	C283.107666,72.579994 286.008057,72.590591 288.686188,73.367477 
	C307.206238,78.739853 323.842316,87.811676 338.994995,99.638100 
	C339.922546,100.362045 340.010010,102.162392 339.815887,103.760796 
	C326.000671,92.664146 311.302856,84.125191 294.371887,78.738037 
z"/>
<path fill="#62CAF6" opacity="1.000000" stroke="none" 
	d="
M192.076141,296.971985 
	C186.902664,298.050415 182.242462,296.728210 177.520721,293.936401 
	C175.153061,291.846771 173.160370,289.760895 171.075546,287.357117 
	C173.694183,287.029480 176.404953,287.019745 179.658173,287.356567 
	C184.159149,290.792786 188.117645,293.882385 192.076141,296.971985 
z"/>
<path fill="#63CAF7" opacity="1.000000" stroke="none" 
	d="
M389.930969,205.522095 
	C388.976593,205.473541 388.077881,204.982330 387.033447,204.205994 
	C385.836121,194.799866 384.784515,185.678848 383.575439,175.191986 
	C385.005463,176.359268 386.611053,177.003647 386.831757,177.965775 
	C387.769989,182.054901 388.473297,186.219025 388.929596,190.392151 
	C389.462708,195.268158 389.649567,200.181992 389.930969,205.522095 
z"/>
<path fill="#61C8F5" opacity="1.000000" stroke="none" 
	d="
M167.022308,273.962280 
	C161.775757,273.757782 157.824936,271.198975 154.360168,267.060242 
	C153.080292,265.194305 152.122925,263.439209 151.055298,261.357361 
	C153.735184,261.601624 156.525330,262.172638 159.665680,263.252350 
	C162.351349,267.161438 164.686829,270.561859 167.022308,273.962280 
z"/>
<path fill="#62CAF6" opacity="1.000000" stroke="none" 
	d="
M382.979309,239.434906 
	C383.776703,238.717972 384.575470,238.394211 385.698059,238.054504 
	C384.995178,242.415009 384.060791,246.817352 382.849396,251.142120 
	C382.651062,251.850250 381.232391,252.216568 380.377747,252.740875 
	C380.243256,251.806488 379.809601,250.795120 380.026733,249.951187 
	C380.902222,246.548721 381.978577,243.197952 382.979309,239.434906 
z"/>
<path fill="#FBFCFE" opacity="1.000000" stroke="none" 
	d="
M362.746857,150.680084 
	C363.034882,151.155533 363.017822,151.326050 362.941711,151.747070 
	C362.482666,152.205917 362.082611,152.414261 361.398499,152.423431 
	C361.556915,151.607895 361.999359,150.991531 362.746857,150.680084 
z"/>
<path fill="#000000" opacity="1.000000" stroke="none" 
	d="
M218.373260,185.098831 
	C217.778717,183.762329 217.004105,182.414597 217.297958,181.366348 
	C219.376694,173.950516 224.139465,168.354950 229.995117,163.606903 
	C230.555252,163.152725 231.590866,163.334457 232.273819,162.972260 
	C233.859787,162.131119 235.365082,161.137863 236.903076,160.206268 
	C236.754333,159.688065 236.605591,159.169861 236.456863,158.651657 
	C239.825150,159.063980 243.200256,159.428085 246.559769,159.902603 
	C249.731140,160.350525 255.469269,154.324524 253.702484,151.975174 
	C252.568100,150.466766 249.192825,150.484055 246.776077,150.143021 
	C244.199783,149.779480 241.569366,149.799393 238.962585,149.651901 
	C238.912399,148.873413 238.862213,148.094925 238.812027,147.316437 
	C241.927872,146.543900 245.300919,146.274902 248.085083,144.852951 
	C250.712509,143.511063 253.816208,141.370621 254.770523,138.847672 
	C256.700714,133.744766 252.611679,129.876511 245.760788,128.933304 
	C243.829010,128.667343 241.526718,127.912544 240.278015,126.563828 
	C238.060165,124.168304 235.213806,122.866386 232.871353,124.340439 
	C230.928345,125.563126 230.050781,128.705093 229.052353,131.140747 
	C227.997787,133.713333 227.358917,136.456299 226.768158,138.377762 
	C223.249939,137.004807 220.453186,136.292877 218.091461,134.862625 
	C216.428116,133.855301 214.064270,131.609772 214.313095,130.383942 
	C214.717407,128.392151 216.692245,126.281921 218.561707,125.114517 
	C222.628235,122.575142 227.046097,120.598251 231.321030,118.392761 
	C234.772461,116.612129 238.040588,117.419029 241.436707,118.780159 
	C242.647247,119.265335 244.283783,118.687561 245.725876,118.594986 
	C245.367630,117.443909 245.224854,116.161682 244.616745,115.162704 
	C240.082733,107.714180 233.865875,106.039749 225.564041,108.903419 
	C222.548599,109.943581 218.873260,109.070732 215.417450,108.137260 
	C220.862991,106.760384 226.277542,105.233528 231.772949,104.097954 
	C233.423721,103.756828 235.480545,102.895813 237.073868,105.259987 
	C237.620865,106.071640 240.070786,105.711571 241.649292,105.694496 
	C245.048737,105.657722 248.596451,104.843361 251.801483,105.577805 
	C254.736053,106.250275 257.133240,109.287102 260.066376,109.941864 
	C264.364349,110.901291 266.361481,116.747086 271.654083,115.027443 
	C277.562683,121.093948 283.464783,116.885979 289.372803,115.021835 
	C295.766846,113.004341 301.464233,114.708786 306.774231,118.347794 
	C307.704010,118.985016 308.543610,119.753891 309.661346,120.651962 
	C306.330231,124.809303 309.416931,127.485306 312.576416,129.840485 
	C317.722504,133.676529 317.624023,140.096191 312.305908,143.991638 
	C310.303589,145.458298 308.607941,147.343613 306.397034,149.384689 
	C309.794373,152.218216 312.532745,154.569260 315.344299,156.829224 
	C318.493469,159.360596 320.036316,162.596680 317.820496,166.151718 
	C316.003906,169.066269 313.776672,172.135712 309.105316,170.145325 
	C304.011932,167.975128 301.329712,173.603928 297.078522,174.340851 
	C297.738190,179.270691 301.663818,180.337616 305.576782,181.949402 
	C296.322235,186.215225 287.015167,191.219894 277.101440,194.219772 
	C258.830170,199.748550 240.214188,204.144928 221.709885,208.888489 
	C219.217300,209.527451 216.539536,209.443954 212.642563,209.821396 
	C220.461288,200.476913 227.781128,191.728668 235.099869,182.981735 
	C229.954102,178.949646 228.125244,179.131104 222.984787,183.413910 
	C221.842239,184.365829 220.134979,184.639984 218.373260,185.098831 
z"/>
<path fill="#000000" opacity="1.000000" stroke="none" 
	d="
M339.520691,243.021881 
	C340.320496,246.959991 340.688232,250.877182 340.986359,254.799652 
	C341.600830,262.884064 336.833679,268.647675 332.155975,274.253387 
	C323.412231,284.731873 313.235901,293.750000 301.173431,300.142426 
	C289.739746,306.201630 277.722534,311.045563 264.539948,312.009003 
	C258.631226,312.440857 252.729065,312.962341 246.284653,313.487061 
	C248.098251,307.547394 250.718094,303.239960 256.087769,300.952454 
	C258.617920,299.874542 260.923401,298.268433 263.454895,297.194427 
	C268.368164,295.109802 270.795746,291.376373 272.178619,286.332550 
	C272.655548,284.593109 275.050079,282.527649 276.875580,282.167633 
	C282.623566,281.033966 287.709106,279.929169 291.565735,274.445129 
	C293.960510,271.039825 298.033752,269.115356 298.773560,264.089661 
	C299.014984,262.449738 302.948242,261.456482 305.047424,259.962799 
	C308.238464,257.692139 310.880005,254.677551 309.807983,250.604507 
	C309.250183,248.485199 306.872772,245.347687 305.230530,245.293365 
	C300.425995,245.134460 295.958313,244.611298 291.607758,241.595551 
	C291.569611,240.457687 291.790680,239.707794 292.002136,238.978302 
	C291.992523,238.998688 291.968353,239.036728 291.968353,239.036728 
	C299.914368,239.977158 307.842865,241.124390 315.811401,241.798935 
	C323.538574,242.453049 331.306885,242.621552 339.520691,243.021881 
z"/>
<path fill="#FDFDFE" opacity="1.000000" stroke="none" 
	d="
M197.568817,255.845703 
	C183.043655,258.472015 168.908600,260.298950 154.620895,257.066589 
	C138.627335,253.448349 129.438385,242.851624 127.892334,226.513718 
	C126.905930,216.089920 128.861694,206.344620 133.817169,197.175507 
	C134.513321,195.887421 135.484039,194.747757 136.660980,193.061966 
	C137.317276,194.356155 137.773544,194.825668 137.685028,195.143494 
	C134.425385,206.848480 141.560852,214.413925 151.694458,217.866959 
	C162.091293,221.409668 172.894531,221.608459 183.743378,221.116455 
	C186.553360,220.989014 189.374023,221.097275 192.606781,221.097275 
	C193.385101,224.938400 197.182404,228.648071 193.244110,233.129120 
	C192.968750,233.442413 193.606323,235.258743 194.202942,235.528809 
	C199.845078,238.082977 198.725281,241.799225 196.431503,244.952454 
	C198.628311,248.259247 200.495819,251.070358 202.619553,254.267151 
	C200.445694,254.971542 199.208328,255.372482 197.568817,255.845703 
z"/>
<path fill="#000000" opacity="1.000000" stroke="none" 
	d="
M316.883881,196.093277 
	C317.590973,197.863312 318.480682,199.584061 318.974091,201.411774 
	C321.280945,209.956924 325.817047,216.238541 335.075104,218.088165 
	C336.282318,218.329346 337.355743,219.239929 337.499817,219.316132 
	C338.406708,225.779388 339.201935,231.446716 339.988373,237.537140 
	C322.851776,237.293747 305.723969,236.627243 288.596161,235.960754 
	C288.511139,235.438080 288.426147,234.915421 288.341125,234.392746 
	C294.014648,229.942673 299.688171,225.492584 305.361694,221.042511 
	C305.208130,220.744141 305.054596,220.445770 304.901031,220.147400 
	C304.049438,220.483017 303.123840,220.699051 302.357941,221.173141 
	C296.099457,225.047348 289.933319,229.076874 283.580383,232.787415 
	C282.303040,233.533478 280.350342,233.123322 278.471741,232.773834 
	C279.881409,231.276337 281.528412,230.251297 283.517578,229.013306 
	C282.133270,227.748032 281.109650,226.812424 280.086029,225.876816 
	C287.980164,219.603363 295.894043,213.354507 303.752197,207.036346 
	C305.389893,205.719604 306.821320,204.146378 308.191772,202.352478 
	C308.035767,202.013626 308.009430,202.005325 308.361450,202.178253 
	C310.155273,200.908676 311.597076,199.466187 313.038910,198.023712 
	C313.038910,198.023712 313.006104,198.006851 313.352783,198.176971 
	C314.023529,197.785721 314.347595,197.224380 314.671631,196.663025 
	C314.671631,196.663025 314.811554,196.852493 315.077881,196.837280 
	C315.490021,196.463257 315.635864,196.104446 315.781708,195.745621 
	C315.781708,195.745621 315.909271,195.857544 316.114288,195.929718 
	C316.507507,196.032349 316.695679,196.062805 316.883881,196.093277 
M308.891907,218.313385 
	C308.498535,217.945801 308.105194,217.578232 307.711823,217.210648 
	C307.434753,217.552780 307.157715,217.894913 306.880646,218.237045 
	C307.349548,218.428757 307.818420,218.620468 308.891907,218.313385 
M310.584198,215.213837 
	C310.509827,215.462204 310.435455,215.710587 310.361084,215.958984 
	C310.587891,216.009689 310.814728,216.060410 311.041534,216.111115 
	C311.094757,215.799545 311.148010,215.487961 310.584198,215.213837 
z"/>
<path fill="#000000" opacity="1.000000" stroke="none" 
	d="
M167.488220,273.979736 
	C164.686829,270.561859 162.351349,267.161438 160.019516,263.399597 
	C174.223495,263.151794 188.289093,262.797882 202.315521,259.476471 
	C206.164108,258.565125 209.917953,257.937469 213.629898,256.283356 
	C217.619217,254.505676 221.999023,253.604324 226.596375,252.579575 
	C227.257751,254.192368 227.531235,255.546173 227.947845,257.608582 
	C243.070831,250.138596 257.508667,243.007034 271.946503,235.875473 
	C273.432037,235.964600 274.917572,236.053726 277.741394,236.223160 
	C272.113312,239.389801 267.595490,242.171677 262.873291,244.547333 
	C241.916290,255.090500 220.504929,264.697418 197.711761,270.421082 
	C188.099350,272.834869 177.891373,272.876984 167.488220,273.979736 
z"/>
<path fill="#000000" opacity="1.000000" stroke="none" 
	d="
M359.432739,236.953796 
	C362.829681,224.444504 363.498016,211.598557 362.963776,198.640854 
	C362.898682,197.062241 362.343323,195.503830 362.066864,193.511993 
	C367.737122,196.546860 373.444519,199.872116 378.936371,203.521759 
	C381.635376,205.315399 383.934967,207.710052 386.726990,210.378204 
	C386.359314,217.935165 385.679993,224.946640 385.000641,231.958099 
	C376.616760,233.621414 368.232849,235.284729 359.432739,236.953796 
z"/>
<path fill="#000000" opacity="1.000000" stroke="none" 
	d="
M163.872742,147.207916 
	C164.695770,146.019806 165.531891,145.094666 167.062592,143.401001 
	C165.471024,150.503403 164.531204,156.652710 162.671616,162.509995 
	C160.245331,170.152206 161.453278,177.841965 163.439804,184.855759 
	C164.921829,190.088257 169.972076,194.362427 173.654343,198.883301 
	C174.595856,200.039246 176.375488,200.512558 177.876389,201.630402 
	C175.003494,202.278412 172.024261,202.595520 169.045029,202.912613 
	C168.837234,203.430191 168.629440,203.947769 168.421631,204.465332 
	C170.338867,206.873734 172.256088,209.282135 174.173309,211.690536 
	C174.122650,212.116180 174.071976,212.541840 174.021317,212.967484 
	C165.694855,211.142502 157.289078,209.606705 149.079620,207.355103 
	C145.628952,206.408691 143.979980,203.179993 144.316635,198.835770 
	C151.158783,201.947906 157.661407,204.905609 164.549789,208.038773 
	C164.932343,205.494095 165.283005,203.161392 165.684479,200.490799 
	C159.387375,197.287384 152.845001,193.959198 146.148056,189.921844 
	C149.022354,174.386688 154.454712,160.555969 163.045486,148.033127 
	C163.325607,147.845718 163.605728,147.658325 163.872742,147.207916 
z"/>
<path fill="#FCFDFE" opacity="1.000000" stroke="none" 
	d="
M231.448715,245.441391 
	C223.927643,248.034622 216.756042,250.455688 209.329910,252.962662 
	C208.485992,242.027740 207.697189,231.807007 206.857834,220.931030 
	C217.272095,223.930618 227.386581,226.244019 236.939743,229.989258 
	C239.544113,231.010284 240.701538,236.256973 241.901062,239.776337 
	C242.091049,240.333755 239.076416,242.205109 237.360199,243.128494 
	C235.624664,244.062256 233.661591,244.573120 231.448715,245.441391 
z"/>
<path fill="#000000" opacity="1.000000" stroke="none" 
	d="
M142.876053,176.912598 
	C140.468262,179.171127 138.060471,181.429672 135.186096,184.125870 
	C128.996307,180.773727 123.258896,176.393341 119.409821,170.425674 
	C116.167931,165.399368 118.491356,159.358917 124.616714,156.992798 
	C132.297607,154.025803 140.438339,152.238617 148.404587,150.028748 
	C150.270432,149.511185 152.232727,149.341339 154.471252,149.361694 
	C149.181808,158.061172 145.168884,167.110123 142.876053,176.912598 
z"/>
<path fill="#000000" opacity="1.000000" stroke="none" 
	d="
M192.433777,296.828796 
	C188.117645,293.882385 184.159149,290.792786 180.109894,287.370850 
	C190.322403,284.541199 200.865005,282.746094 210.858276,279.339478 
	C219.956909,276.237854 228.459106,271.386658 237.603409,267.604034 
	C237.656235,269.463196 236.986130,271.054291 237.116196,272.577026 
	C237.213837,273.719971 238.340134,274.774994 239.008469,275.869171 
	C238.357834,276.732513 237.893097,278.003815 237.028580,278.397736 
	C224.833221,283.954651 212.612473,289.458923 200.321564,294.800293 
	C197.980530,295.817688 195.309937,296.076721 192.433777,296.828796 
z"/>
<path fill="#62C9F6" opacity="1.000000" stroke="none" 
	d="
M239.011841,275.909241 
	C238.340134,274.774994 237.213837,273.719971 237.116196,272.577026 
	C236.986130,271.054291 237.656235,269.463196 237.929138,267.491241 
	C247.761963,260.828369 257.681091,254.626785 267.519379,248.299469 
	C271.825104,245.530289 276.055969,242.624466 280.147919,239.550507 
	C282.700470,237.632965 285.193329,236.579666 288.561646,238.308746 
	C287.045319,240.449890 285.251495,242.228165 283.457642,244.006439 
	C283.013123,244.351334 282.568604,244.696243 281.787140,245.490540 
	C279.786072,247.295395 278.121948,248.650833 276.457855,250.006256 
	C276.457855,250.006256 276.184357,249.989532 276.184357,249.989532 
	C276.184357,249.989532 275.990631,250.183426 275.714355,250.562454 
	C274.444427,251.629974 273.450714,252.318466 272.457031,253.006973 
	C272.457031,253.006973 272.183319,252.990356 272.183319,252.990356 
	C272.183319,252.990356 271.989563,253.184479 271.736023,253.560913 
	C270.298798,254.943405 269.115082,255.949463 267.931335,256.955505 
	C267.931366,256.955536 267.997925,256.994873 267.641022,256.997864 
	C266.167633,257.984039 265.051178,258.967194 263.934723,259.950378 
	C263.934723,259.950378 263.997986,259.995392 263.650116,259.997742 
	C262.512512,260.651001 261.722778,261.301910 260.933044,261.952789 
	C260.933044,261.952789 260.999786,261.996063 260.617004,261.999634 
	C257.467865,263.985413 254.701538,265.967590 251.935211,267.949799 
	C251.935211,267.949799 251.998184,267.995453 251.650208,267.997803 
	C250.512512,268.651001 249.722778,269.301880 248.933060,269.952759 
	C248.933060,269.952759 248.999329,269.995972 248.611664,269.999634 
	C245.127609,271.985657 242.031204,273.968018 238.934784,275.950378 
	C238.934799,275.950378 239.015213,275.949310 239.011841,275.909241 
z"/>
<path fill="#000000" opacity="1.000000" stroke="none" 
	d="
M205.216888,197.970947 
	C203.597153,196.329880 202.377914,194.824585 200.111465,197.327026 
	C197.235626,200.502304 193.067627,201.518295 190.073853,198.762924 
	C187.787476,196.658539 186.239944,192.576172 186.300171,189.410522 
	C186.367477,185.871094 188.998856,183.185562 193.447479,182.790054 
	C197.870850,182.396790 202.198074,180.982559 206.595825,180.169464 
	C207.190292,180.059540 208.221481,180.669891 208.587616,181.242630 
	C210.471619,184.189713 212.204514,187.233414 213.987259,190.600098 
	C211.989944,192.178726 210.742218,194.153076 207.426956,193.306137 
	C204.470703,192.550934 205.046524,195.741608 205.216888,197.970947 
z"/>
<path fill="#63CAF6" opacity="1.000000" stroke="none" 
	d="
M142.916077,177.319061 
	C145.168884,167.110123 149.181808,158.061172 154.886017,149.376144 
	C157.390167,148.693420 159.800186,148.346420 162.627838,148.016266 
	C154.454712,160.555969 149.022354,174.386688 145.958252,189.627625 
	C144.003677,189.332031 142.084335,188.621475 140.502487,188.035873 
	C141.411743,184.215057 142.183929,180.970291 142.916077,177.319061 
z"/>
<path fill="#61C8F5" opacity="1.000000" stroke="none" 
	d="
M271.735718,235.581024 
	C257.508667,243.007034 243.070831,250.138596 227.947845,257.608582 
	C227.531235,255.546173 227.257751,254.192368 226.946198,252.458420 
	C238.096970,247.116028 249.404419,242.398087 260.409058,237.056320 
	C264.155396,235.237793 267.446564,233.630554 271.735718,235.581024 
z"/>
<path fill="#62CAF6" opacity="1.000000" stroke="none" 
	d="
M385.309753,231.867798 
	C385.679993,224.946640 386.359314,217.935165 387.050659,210.492706 
	C388.003815,211.203278 388.944916,212.344833 389.937561,214.206665 
	C389.364868,219.919052 388.740662,224.911209 388.116425,229.903351 
	C387.283875,230.528061 386.451355,231.152771 385.309753,231.867798 
z"/>
<path fill="#000000" opacity="1.000000" stroke="none" 
	d="
M388.442719,229.798904 
	C388.740662,224.911209 389.364868,219.919052 390.052338,214.512756 
	C395.711090,221.646942 395.366089,225.642670 388.442719,229.798904 
z"/>
<path fill="#62C9F6" opacity="1.000000" stroke="none" 
	d="
M279.725647,225.936218 
	C281.109650,226.812424 282.133270,227.748032 283.517578,229.013306 
	C281.528412,230.251297 279.881409,231.276337 278.128296,232.631958 
	C275.628693,232.814789 273.235199,232.667068 270.841705,232.519333 
	C270.716125,232.087753 270.590576,231.656158 270.465027,231.224579 
	C273.431793,229.481598 276.398529,227.738602 279.725647,225.936218 
z"/>
<path fill="#000000" opacity="1.000000" stroke="none" 
	d="
M283.858978,244.276505 
	C285.251495,242.228165 287.045319,240.449890 288.940613,238.352570 
	C289.938232,238.152283 290.834381,238.271027 291.849426,238.713257 
	C291.968353,239.036728 291.992523,238.998688 291.701447,239.082153 
	C290.620453,240.131790 289.830505,241.097961 289.040558,242.064133 
	C289.040558,242.064133 288.995300,242.007584 288.750732,242.061981 
	C288.353943,242.428772 288.201721,242.741180 288.049500,243.053574 
	C288.049500,243.053574 288.000000,243.000000 287.753052,243.058182 
	C287.353882,243.428757 287.201660,243.741150 287.049438,244.053558 
	C287.049438,244.053558 287.032562,244.030487 287.047913,244.040390 
	C286.128967,244.215714 285.194641,244.381134 283.858978,244.276505 
z"/>
<path fill="#000000" opacity="1.000000" stroke="none" 
	d="
M373.170685,143.719543 
	C372.444244,144.511185 371.332214,145.026993 369.831787,145.273010 
	C370.557281,144.483368 371.671204,143.963531 373.170685,143.719543 
z"/>
<path fill="#000000" opacity="1.000000" stroke="none" 
	d="
M366.836334,147.700409 
	C366.618652,148.303909 366.230499,149.106644 365.435181,149.680115 
	C365.028046,149.450851 365.093872,149.022034 365.093872,149.022034 
	C365.093872,149.022034 365.015686,149.017181 365.290680,148.980698 
	C365.760925,148.629913 365.956177,148.315613 366.151398,148.001312 
	C366.322876,147.967407 366.494385,147.933533 366.836334,147.700409 
z"/>
<path fill="#FBFCFE" opacity="1.000000" stroke="none" 
	d="
M363.652100,149.831039 
	C363.883453,150.289566 363.706421,150.609726 363.251709,150.994720 
	C363.063904,150.603912 363.153809,150.148285 363.652100,149.831039 
z"/>
<path fill="#FBFCFE" opacity="1.000000" stroke="none" 
	d="
M364.709381,148.913666 
	C365.093872,149.022034 365.028046,149.450851 365.012512,149.666473 
	C364.827332,149.922409 364.657654,149.962723 364.227783,150.029709 
	C364.086700,149.639343 364.205811,149.222321 364.709381,148.913666 
z"/>
<path fill="#FBFCFE" opacity="1.000000" stroke="none" 
	d="
M365.791138,147.980591 
	C365.956177,148.315613 365.760925,148.629913 365.291748,149.019836 
	C365.155548,148.716919 365.293243,148.338394 365.791138,147.980591 
z"/>
<path fill="#000000" opacity="1.000000" stroke="none" 
	d="
M208.149384,304.389404 
	C217.757706,299.125885 227.498215,294.212982 237.562531,289.199097 
	C237.268478,291.740997 236.526428,294.362152 236.059891,297.031464 
	C235.224106,301.813293 234.554138,306.624146 233.658005,312.441101 
	C225.644745,310.009277 216.963165,307.374664 208.149384,304.389404 
z"/>
<path fill="#1E63AE" opacity="1.000000" stroke="none" 
	d="
M289.388611,242.071091 
	C289.830505,241.097961 290.620453,240.131790 291.711060,239.061768 
	C291.790680,239.707794 291.569611,240.457687 291.227264,241.526825 
	C290.649536,241.923370 290.193115,242.000717 289.388611,242.071091 
z"/>
<path fill="#1E63AE" opacity="1.000000" stroke="none" 
	d="
M288.314514,243.006683 
	C288.201721,242.741180 288.353943,242.428772 288.780090,242.082703 
	C288.895844,242.352615 288.737671,242.656204 288.314514,243.006683 
z"/>
<path fill="#1E63AE" opacity="1.000000" stroke="none" 
	d="
M287.314453,244.006668 
	C287.201660,243.741150 287.353882,243.428757 287.780029,243.082703 
	C287.895782,243.352615 287.737640,243.656204 287.314453,244.006668 
z"/>
<path fill="#1E63AE" opacity="1.000000" stroke="none" 
	d="
M316.930786,195.821198 
	C316.695679,196.062805 316.507507,196.032349 316.072968,195.855591 
	C316.031616,195.486115 316.236603,195.262909 316.700989,195.018433 
	C316.966156,195.181137 316.971893,195.365128 316.930786,195.821198 
z"/>
<path fill="#1E63AE" opacity="1.000000" stroke="none" 
	d="
M312.695099,197.979736 
	C311.597076,199.466187 310.155273,200.908676 308.362030,202.190475 
	C309.457489,200.665115 310.904388,199.300446 312.695099,197.979736 
z"/>
<path fill="#1E63AE" opacity="1.000000" stroke="none" 
	d="
M314.346191,196.620117 
	C314.347595,197.224380 314.023529,197.785721 313.360229,198.193848 
	C313.354218,197.552811 313.687500,197.065002 314.346191,196.620117 
z"/>
<path fill="#1E63AE" opacity="1.000000" stroke="none" 
	d="
M315.487000,195.696503 
	C315.635864,196.104446 315.490021,196.463257 315.033142,196.728333 
	C314.878815,196.305527 315.035553,195.976456 315.487000,195.696503 
z"/>
<path fill="#000000" opacity="1.000000" stroke="none" 
	d="
M310.813934,366.757324 
	C311.946167,371.163452 312.924774,375.215820 313.991913,379.634949 
	C311.732513,379.634949 309.554962,379.634949 306.328064,379.634949 
	C307.836700,375.027344 309.248474,370.715454 310.813934,366.757324 
z"/>
<path fill="#000000" opacity="1.000000" stroke="none" 
	d="
M239.274414,276.173035 
	C242.031204,273.968018 245.127609,271.985657 248.587067,269.968628 
	C245.838074,272.087860 242.726059,274.241791 239.274414,276.173035 
z"/>
<path fill="#000000" opacity="1.000000" stroke="none" 
	d="
M252.271790,268.174927 
	C254.701538,265.967590 257.467865,263.985413 260.591309,261.969238 
	C258.168396,264.090179 255.388382,266.245148 252.271790,268.174927 
z"/>
<path fill="#000000" opacity="1.000000" stroke="none" 
	d="
M276.829834,250.276123 
	C278.121948,248.650833 279.786072,247.295395 281.728699,245.699097 
	C280.405426,247.154144 278.803619,248.850067 276.829834,250.276123 
z"/>
<path fill="#000000" opacity="1.000000" stroke="none" 
	d="
M264.279175,260.174194 
	C265.051178,258.967194 266.167633,257.984039 267.618378,256.966553 
	C266.842987,258.087494 265.733337,259.242798 264.279175,260.174194 
z"/>
<path fill="#000000" opacity="1.000000" stroke="none" 
	d="
M268.312836,257.158142 
	C269.115082,255.949463 270.298798,254.943405 271.744812,253.697693 
	C270.902832,254.758957 269.798584,256.059875 268.312836,257.158142 
z"/>
<path fill="#000000" opacity="1.000000" stroke="none" 
	d="
M261.292847,262.166382 
	C261.722778,261.301910 262.512512,260.651001 263.629913,259.964600 
	C263.189270,260.746063 262.420959,261.563019 261.292847,262.166382 
z"/>
<path fill="#000000" opacity="1.000000" stroke="none" 
	d="
M272.888184,253.272476 
	C273.450714,252.318466 274.444427,251.629974 275.723328,250.699097 
	C275.112152,251.483810 274.215729,252.510895 272.888184,253.272476 
z"/>
<path fill="#000000" opacity="1.000000" stroke="none" 
	d="
M249.292847,270.166351 
	C249.722778,269.301880 250.512512,268.651001 251.629913,267.964630 
	C251.189270,268.746063 250.420944,269.562988 249.292847,270.166351 
z"/>
<path fill="#1E63AE" opacity="1.000000" stroke="none" 
	d="
M308.589600,218.562775 
	C307.818420,218.620468 307.349548,218.428757 306.880646,218.237045 
	C307.157715,217.894913 307.434753,217.552780 307.711823,217.210648 
	C308.105194,217.578232 308.498535,217.945801 308.589600,218.562775 
z"/>
<path fill="#1E63AE" opacity="1.000000" stroke="none" 
	d="
M310.892700,215.195114 
	C311.148010,215.487961 311.094757,215.799545 311.041534,216.111115 
	C310.814728,216.060410 310.587891,216.009689 310.361084,215.958984 
	C310.435455,215.710587 310.509827,215.462204 310.892700,215.195114 
z"/>
</svg>